{
    "asset" : {
        "generator" : "Khronos glTF Blender I/O v3.4.50",
        "version" : "2.0"
    },
    "extensionsUsed" : [
        "KHR_materials_clearcoat",
        "KHR_materials_transmission",
        "KHR_materials_specular",
        "KHR_materials_ior"
    ],
    "scene" : 0,
    "scenes" : [
        {
            "name" : "Scene",
            "nodes" : [
                0,
                1
            ]
        }
    ],
    "nodes" : [
        {
            "mesh" : 0,
            "name" : "SM_VortexMixer",
            "scale" : [
                0.009999999776482582,
                0.009999999776482582,
                0.009999999776482582
            ],
            "translation" : [
                -39.010498046875,
                0.9364379048347473,
                -10.88028621673584
            ]
        },
        {
            "mesh" : 1,
            "name" : "SM_VortexMixer.002",
            "rotation" : [
                0,
                0.12082742899656296,
                0,
                0.9926735162734985
            ],
            "scale" : [
                0.009999999776482582,
                0.009999999776482582,
                0.009999999776482582
            ],
            "translation" : [
                -38.82958984375,
                0.9364379048347473,
                -10.913837432861328
            ]
        }
    ],
    "materials" : [
        {
            "doubleSided" : true,
            "extensions" : {
                "KHR_materials_clearcoat" : {
                    "clearcoatFactor" : 0.05000000074505806,
                    "clearcoatRoughnessFactor" : 0.10000000149011612
                },
                "KHR_materials_transmission" : {
                    "transmissionFactor" : 1,
                    "transmissionTexture" : {
                        "index" : 0
                    }
                },
                "KHR_materials_specular" : {
                    "specularColorTexture" : {
                        "index" : 1
                    }
                },
                "KHR_materials_ior" : {
                    "ior" : 0
                }
            },
            "name" : "ColorPaletteB",
            "pbrMetallicRoughness" : {
                "baseColorTexture" : {
                    "index" : 2
                },
                "metallicRoughnessTexture" : {
                    "index" : 3
                }
            }
        },
        {
            "doubleSided" : true,
            "extensions" : {
                "KHR_materials_specular" : {
                    "specularColorFactor" : [
                        0.7825480438613255,
                        0.7825480438613255,
                        0.7825480438613255
                    ]
                },
                "KHR_materials_ior" : {
                    "ior" : 1.4500000476837158
                }
            },
            "name" : "GUUMMI",
            "pbrMetallicRoughness" : {
                "baseColorFactor" : [
                    0,
                    0,
                    0,
                    1
                ],
                "metallicFactor" : 0
            }
        },
        {
            "doubleSided" : true,
            "extensions" : {
                "KHR_materials_specular" : {
                    "specularColorFactor" : [
                        0.7825480438613255,
                        0.7825480438613255,
                        0.7825480438613255
                    ]
                },
                "KHR_materials_ior" : {
                    "ior" : 1.4500000476837158
                }
            },
            "name" : "M_0136_Charcoal.001",
            "pbrMetallicRoughness" : {
                "baseColorFactor" : [
                    0.137254998087883,
                    0.137254998087883,
                    0.137254998087883,
                    1
                ],
                "metallicFactor" : 0
            }
        },
        {
            "doubleSided" : true,
            "name" : "M_11_Quartz_Light_Grey",
            "pbrMetallicRoughness" : {
                "baseColorTexture" : {
                    "index" : 4
                },
                "metallicFactor" : 0,
                "roughnessFactor" : 0.25
            }
        }
    ],
    "meshes" : [
        {
            "name" : "SM_VortexMixer",
            "primitives" : [
                {
                    "attributes" : {
                        "POSITION" : 0,
                        "TEXCOORD_0" : 1,
                        "NORMAL" : 2
                    },
                    "indices" : 3,
                    "material" : 0
                }
            ]
        },
        {
            "name" : "SM_VortexMixer.001",
            "primitives" : [
                {
                    "attributes" : {
                        "POSITION" : 4,
                        "TEXCOORD_0" : 5,
                        "NORMAL" : 6
                    },
                    "indices" : 7,
                    "material" : 1
                },
                {
                    "attributes" : {
                        "POSITION" : 8,
                        "TEXCOORD_0" : 9,
                        "NORMAL" : 10
                    },
                    "indices" : 11,
                    "material" : 2
                },
                {
                    "attributes" : {
                        "POSITION" : 12,
                        "TEXCOORD_0" : 13,
                        "NORMAL" : 14
                    },
                    "indices" : 15,
                    "material" : 3
                }
            ]
        }
    ],
    "textures" : [
        {
            "sampler" : 0,
            "source" : 0
        },
        {
            "sampler" : 0,
            "source" : 1
        },
        {
            "sampler" : 0,
            "source" : 2
        },
        {
            "sampler" : 0,
            "source" : 3
        },
        {
            "sampler" : 1,
            "source" : 4
        }
    ],
    "images" : [
        {
            "bufferView" : 4,
            "mimeType" : "image/png",
            "name" : "refractionTexture"
        },
        {
            "bufferView" : 5,
            "mimeType" : "image/png",
            "name" : "Image"
        },
        {
            "bufferView" : 6,
            "mimeType" : "image/png",
            "name" : "ColorPaletteB"
        },
        {
            "bufferView" : 7,
            "mimeType" : "image/png",
            "name" : "metallicTexture-roughnessTexture"
        },
        {
            "bufferView" : 20,
            "mimeType" : "image/jpeg",
            "name" : "Quartz_Light_Grey"
        }
    ],
    "accessors" : [
        {
            "bufferView" : 0,
            "componentType" : 5126,
            "count" : 1640,
            "max" : [
                6.350000381469727,
                15.221688270568848,
                8.000000953674316
            ],
            "min" : [
                -6.350000381469727,
                3.9528335037175566e-05,
                -8.000000953674316
            ],
            "type" : "VEC3"
        },
        {
            "bufferView" : 1,
            "componentType" : 5126,
            "count" : 1640,
            "type" : "VEC2"
        },
        {
            "bufferView" : 2,
            "componentType" : 5126,
            "count" : 1640,
            "type" : "VEC3"
        },
        {
            "bufferView" : 3,
            "componentType" : 5123,
            "count" : 7416,
            "type" : "SCALAR"
        },
        {
            "bufferView" : 8,
            "componentType" : 5126,
            "count" : 1114,
            "max" : [
                5.2916669845581055,
                15.221688270568848,
                7.517948150634766
            ],
            "min" : [
                -5.2916669845581055,
                3.9528335037175566e-05,
                -5.419928550720215
            ],
            "type" : "VEC3"
        },
        {
            "bufferView" : 9,
            "componentType" : 5126,
            "count" : 1114,
            "type" : "VEC2"
        },
        {
            "bufferView" : 10,
            "componentType" : 5126,
            "count" : 1114,
            "type" : "VEC3"
        },
        {
            "bufferView" : 11,
            "componentType" : 5123,
            "count" : 3396,
            "type" : "SCALAR"
        },
        {
            "bufferView" : 12,
            "componentType" : 5126,
            "count" : 354,
            "max" : [
                3.410815715789795,
                9.91633415222168,
                7.870944499969482
            ],
            "min" : [
                -4.714043617248535,
                5.175138473510742,
                5.246589183807373
            ],
            "type" : "VEC3"
        },
        {
            "bufferView" : 13,
            "componentType" : 5126,
            "count" : 354,
            "type" : "VEC2"
        },
        {
            "bufferView" : 14,
            "componentType" : 5126,
            "count" : 354,
            "type" : "VEC3"
        },
        {
            "bufferView" : 15,
            "componentType" : 5123,
            "count" : 1044,
            "type" : "SCALAR"
        },
        {
            "bufferView" : 16,
            "componentType" : 5126,
            "count" : 714,
            "max" : [
                6.350000381469727,
                13.05904769897461,
                8.000000953674316
            ],
            "min" : [
                -6.350000381469727,
                0.4958503842353821,
                -8.000000953674316
            ],
            "type" : "VEC3"
        },
        {
            "bufferView" : 17,
            "componentType" : 5126,
            "count" : 714,
            "type" : "VEC2"
        },
        {
            "bufferView" : 18,
            "componentType" : 5126,
            "count" : 714,
            "type" : "VEC3"
        },
        {
            "bufferView" : 19,
            "componentType" : 5123,
            "count" : 2976,
            "type" : "SCALAR"
        }
    ],
    "bufferViews" : [
        {
            "buffer" : 0,
            "byteLength" : 19680,
            "byteOffset" : 0,
            "target" : 34962
        },
        {
            "buffer" : 0,
            "byteLength" : 13120,
            "byteOffset" : 19680,
            "target" : 34962
        },
        {
            "buffer" : 0,
            "byteLength" : 19680,
            "byteOffset" : 32800,
            "target" : 34962
        },
        {
            "buffer" : 0,
            "byteLength" : 14832,
            "byteOffset" : 52480,
            "target" : 34963
        },
        {
            "buffer" : 0,
            "byteLength" : 177,
            "byteOffset" : 67312
        },
        {
            "buffer" : 0,
            "byteLength" : 237,
            "byteOffset" : 67492
        },
        {
            "buffer" : 0,
            "byteLength" : 311,
            "byteOffset" : 67732
        },
        {
            "buffer" : 0,
            "byteLength" : 210,
            "byteOffset" : 68044
        },
        {
            "buffer" : 0,
            "byteLength" : 13368,
            "byteOffset" : 68256,
            "target" : 34962
        },
        {
            "buffer" : 0,
            "byteLength" : 8912,
            "byteOffset" : 81624,
            "target" : 34962
        },
        {
            "buffer" : 0,
            "byteLength" : 13368,
            "byteOffset" : 90536,
            "target" : 34962
        },
        {
            "buffer" : 0,
            "byteLength" : 6792,
            "byteOffset" : 103904,
            "target" : 34963
        },
        {
            "buffer" : 0,
            "byteLength" : 4248,
            "byteOffset" : 110696,
            "target" : 34962
        },
        {
            "buffer" : 0,
            "byteLength" : 2832,
            "byteOffset" : 114944,
            "target" : 34962
        },
        {
            "buffer" : 0,
            "byteLength" : 4248,
            "byteOffset" : 117776,
            "target" : 34962
        },
        {
            "buffer" : 0,
            "byteLength" : 2088,
            "byteOffset" : 122024,
            "target" : 34963
        },
        {
            "buffer" : 0,
            "byteLength" : 8568,
            "byteOffset" : 124112,
            "target" : 34962
        },
        {
            "buffer" : 0,
            "byteLength" : 5712,
            "byteOffset" : 132680,
            "target" : 34962
        },
        {
            "buffer" : 0,
            "byteLength" : 8568,
            "byteOffset" : 138392,
            "target" : 34962
        },
        {
            "buffer" : 0,
            "byteLength" : 5952,
            "byteOffset" : 146960,
            "target" : 34963
        },
        {
            "buffer" : 0,
            "byteLength" : 9585,
            "byteOffset" : 152912
        }
    ],
    "samplers" : [
        {
            "magFilter" : 9728,
            "minFilter" : 9984
        },
        {
            "magFilter" : 9729,
            "minFilter" : 9987
        }
    ],
    "buffers" : [
        {
            "byteLength" : 162500,
            "uri" : "data:application/octet-stream;base64,"
        }
    ]
}
